<svg width="122" height="137" viewBox="0 0 122 137" fill="none" xmlns="http://www.w3.org/2000/svg">
<g opacity="0.4">
<path d="M117.718 132.751L120.563 135.963" stroke="#3D67B1" stroke-width="2" stroke-linecap="round"/>
<path d="M117.717 118.472L120.597 120.921" stroke="#3D67B1" stroke-width="2" stroke-linecap="round"/>
<path d="M117.717 104.194L120.564 105.976" stroke="#3D67B1" stroke-width="2" stroke-linecap="round"/>
<path d="M117.717 89.917L120.57 90.9634" stroke="#3D67B1" stroke-width="2" stroke-linecap="round"/>
<path d="M117.718 75.6389L120.565 75.9768" stroke="#3D67B1" stroke-width="2" stroke-linecap="round"/>
<path d="M117.717 61.3615L120.56 60.9676" stroke="#3D67B1" stroke-width="2" stroke-linecap="round"/>
<path d="M117.717 47.084L120.554 45.9815" stroke="#3D67B1" stroke-width="2" stroke-linecap="round"/>
<path d="M117.717 32.8062L120.536 30.9687" stroke="#3D67B1" stroke-width="2" stroke-linecap="round"/>
<path d="M117.717 18.5281L120.559 16.0225" stroke="#3D67B1" stroke-width="2" stroke-linecap="round"/>
<path d="M117.717 4.25024L120.563 1.03777" stroke="#3D67B1" stroke-width="2" stroke-linecap="round"/>
<path d="M105.068 132.751L107.288 135.958" stroke="#3D67B1" stroke-width="2" stroke-linecap="round"/>
<path d="M105.069 118.472L107.282 120.971" stroke="#3D67B1" stroke-width="2" stroke-linecap="round"/>
<path d="M105.068 104.195L107.296 105.956" stroke="#3D67B1" stroke-width="2" stroke-linecap="round"/>
<path d="M105.068 89.9168L107.285 90.979" stroke="#3D67B1" stroke-width="2" stroke-linecap="round"/>
<path d="M105.068 75.6391L107.282 75.9903" stroke="#3D67B1" stroke-width="2" stroke-linecap="round"/>
<path d="M105.068 61.361L107.276 60.9661" stroke="#3D67B1" stroke-width="2" stroke-linecap="round"/>
<path d="M105.069 47.084L107.269 45.9783" stroke="#3D67B1" stroke-width="2" stroke-linecap="round"/>
<path d="M105.068 32.8062L107.269 31.0013" stroke="#3D67B1" stroke-width="2" stroke-linecap="round"/>
<path d="M105.069 18.5283L107.282 16.0297" stroke="#3D67B1" stroke-width="2" stroke-linecap="round"/>
<path d="M105.068 4.25024L107.238 0.999989" stroke="#3D67B1" stroke-width="2" stroke-linecap="round"/>
<path d="M92.42 132.75L94.0479 135.933" stroke="#3D67B1" stroke-width="2" stroke-linecap="round"/>
<path d="M92.4197 118.472L94.0186 120.956" stroke="#3D67B1" stroke-width="2" stroke-linecap="round"/>
<path d="M92.4199 104.194L94.001 105.979" stroke="#3D67B1" stroke-width="2" stroke-linecap="round"/>
<path d="M92.4198 89.9169L94.0166 90.9575" stroke="#3D67B1" stroke-width="2" stroke-linecap="round"/>
<path d="M92.4202 75.6391L94.0029 75.9864" stroke="#3D67B1" stroke-width="2" stroke-linecap="round"/>
<path d="M92.4199 61.3613L93.9971 60.9829" stroke="#3D67B1" stroke-width="2" stroke-linecap="round"/>
<path d="M92.4195 47.084L94 46.012" stroke="#3D67B1" stroke-width="2" stroke-linecap="round"/>
<path d="M92.4199 32.8062L94.001 31.0214" stroke="#3D67B1" stroke-width="2" stroke-linecap="round"/>
<path d="M92.4202 18.5283L93.9805 16.0131" stroke="#3D67B1" stroke-width="2" stroke-linecap="round"/>
<path d="M92.4197 4.25024L93.998 1.03607" stroke="#3D67B1" stroke-width="2" stroke-linecap="round"/>
<path d="M79.7714 132.75L80.748 135.951" stroke="#3D67B1" stroke-width="2" stroke-linecap="round"/>
<path d="M79.7705 118.472L80.75 120.955" stroke="#3D67B1" stroke-width="2" stroke-linecap="round"/>
<path d="M79.7711 104.195L80.7207 105.979" stroke="#3D67B1" stroke-width="2" stroke-linecap="round"/>
<path d="M79.7711 89.9167L80.7197 90.9875" stroke="#3D67B1" stroke-width="2" stroke-linecap="round"/>
<path d="M79.7707 75.6393L80.7217 75.9881" stroke="#3D67B1" stroke-width="2" stroke-linecap="round"/>
<path d="M79.7713 61.3615L80.7168 60.994" stroke="#3D67B1" stroke-width="2" stroke-linecap="round"/>
<path d="M79.7711 47.084L80.7197 46.0132" stroke="#3D67B1" stroke-width="2" stroke-linecap="round"/>
<path d="M79.7714 32.8062L80.6934 31.0037" stroke="#3D67B1" stroke-width="2" stroke-linecap="round"/>
<path d="M79.7709 18.5283L80.7119 16.026" stroke="#3D67B1" stroke-width="2" stroke-linecap="round"/>
<path d="M79.7712 4.25024L80.6982 1.02973" stroke="#3D67B1" stroke-width="2" stroke-linecap="round"/>
<path d="M67.1226 132.75L67.4715 135.958" stroke="#3D67B1" stroke-width="2" stroke-linecap="round"/>
<path d="M67.1222 118.472L67.472 120.965" stroke="#3D67B1" stroke-width="2" stroke-linecap="round"/>
<path d="M67.1226 104.194L67.4578 105.975" stroke="#3D67B1" stroke-width="2" stroke-linecap="round"/>
<path d="M67.1226 89.9166L67.4481 90.9839" stroke="#3D67B1" stroke-width="2" stroke-linecap="round"/>
<path d="M67.1224 75.6391L67.4386 75.9961" stroke="#3D67B1" stroke-width="2" stroke-linecap="round"/>
<path d="M67.1224 61.3611L67.4386 61.0041" stroke="#3D67B1" stroke-width="2" stroke-linecap="round"/>
<path d="M67.123 47.084L67.432 46.0105" stroke="#3D67B1" stroke-width="2" stroke-linecap="round"/>
<path d="M67.1227 32.8062L67.4304 31.0195" stroke="#3D67B1" stroke-width="2" stroke-linecap="round"/>
<path d="M67.1219 18.5281L67.4331 16.0287" stroke="#3D67B1" stroke-width="2" stroke-linecap="round"/>
<path d="M67.123 4.25024L67.4223 1.03571" stroke="#3D67B1" stroke-width="2" stroke-linecap="round"/>
<path d="M54.4731 132.75L54.1738 135.965" stroke="#3D67B1" stroke-width="2" stroke-linecap="round"/>
<path d="M54.4732 118.472L54.162 120.971" stroke="#3D67B1" stroke-width="2" stroke-linecap="round"/>
<path d="M54.4734 104.194L54.1657 105.981" stroke="#3D67B1" stroke-width="2" stroke-linecap="round"/>
<path d="M54.474 89.9167L54.165 90.9902" stroke="#3D67B1" stroke-width="2" stroke-linecap="round"/>
<path d="M54.4737 75.6391L54.1575 75.9961" stroke="#3D67B1" stroke-width="2" stroke-linecap="round"/>
<path d="M54.4737 61.3611L54.1575 61.0041" stroke="#3D67B1" stroke-width="2" stroke-linecap="round"/>
<path d="M54.4735 47.084L54.148 46.0167" stroke="#3D67B1" stroke-width="2" stroke-linecap="round"/>
<path d="M54.4735 32.8062L54.1382 31.0259" stroke="#3D67B1" stroke-width="2" stroke-linecap="round"/>
<path d="M54.4739 18.5281L54.1241 16.0352" stroke="#3D67B1" stroke-width="2" stroke-linecap="round"/>
<path d="M54.4735 4.25024L54.1245 1.04209" stroke="#3D67B1" stroke-width="2" stroke-linecap="round"/>
<path d="M41.8252 132.75L40.8982 135.97" stroke="#3D67B1" stroke-width="2" stroke-linecap="round"/>
<path d="M41.8252 118.472L40.8842 120.974" stroke="#3D67B1" stroke-width="2" stroke-linecap="round"/>
<path d="M41.8252 104.195L40.9033 105.997" stroke="#3D67B1" stroke-width="2" stroke-linecap="round"/>
<path d="M41.8252 89.9167L40.8765 90.9875" stroke="#3D67B1" stroke-width="2" stroke-linecap="round"/>
<path d="M41.8252 75.6395L40.8797 76.007" stroke="#3D67B1" stroke-width="2" stroke-linecap="round"/>
<path d="M41.8252 61.3614L40.8742 61.0126" stroke="#3D67B1" stroke-width="2" stroke-linecap="round"/>
<path d="M41.8252 47.084L40.8765 46.0132" stroke="#3D67B1" stroke-width="2" stroke-linecap="round"/>
<path d="M41.8252 32.8062L40.8755 31.0221" stroke="#3D67B1" stroke-width="2" stroke-linecap="round"/>
<path d="M41.8252 18.5281L40.8457 16.0447" stroke="#3D67B1" stroke-width="2" stroke-linecap="round"/>
<path d="M41.8252 4.25024L40.8485 1.04848" stroke="#3D67B1" stroke-width="2" stroke-linecap="round"/>
<path d="M29.1758 132.75L27.5974 135.964" stroke="#3D67B1" stroke-width="2" stroke-linecap="round"/>
<path d="M29.1758 118.472L27.6155 120.987" stroke="#3D67B1" stroke-width="2" stroke-linecap="round"/>
<path d="M29.1758 104.194L27.5947 105.979" stroke="#3D67B1" stroke-width="2" stroke-linecap="round"/>
<path d="M29.1758 89.9166L27.5953 90.9885" stroke="#3D67B1" stroke-width="2" stroke-linecap="round"/>
<path d="M29.1758 75.6389L27.5986 76.0173" stroke="#3D67B1" stroke-width="2" stroke-linecap="round"/>
<path d="M29.1758 61.3611L27.593 61.0139" stroke="#3D67B1" stroke-width="2" stroke-linecap="round"/>
<path d="M29.1768 47.084L27.5799 46.0433" stroke="#3D67B1" stroke-width="2" stroke-linecap="round"/>
<path d="M29.1768 32.8062L27.5957 31.0214" stroke="#3D67B1" stroke-width="2" stroke-linecap="round"/>
<path d="M29.1768 18.5281L27.5779 16.044" stroke="#3D67B1" stroke-width="2" stroke-linecap="round"/>
<path d="M29.1758 4.25024L27.548 1.06765" stroke="#3D67B1" stroke-width="2" stroke-linecap="round"/>
<path d="M16.5273 132.75L14.3575 136" stroke="#3D67B1" stroke-width="2" stroke-linecap="round"/>
<path d="M16.5273 118.472L14.3138 120.971" stroke="#3D67B1" stroke-width="2" stroke-linecap="round"/>
<path d="M16.5273 104.194L14.3267 105.999" stroke="#3D67B1" stroke-width="2" stroke-linecap="round"/>
<path d="M16.5273 89.9165L14.3273 91.0222" stroke="#3D67B1" stroke-width="2" stroke-linecap="round"/>
<path d="M16.5273 75.6392L14.3189 76.0341" stroke="#3D67B1" stroke-width="2" stroke-linecap="round"/>
<path d="M16.5273 61.3614L14.3131 61.0101" stroke="#3D67B1" stroke-width="2" stroke-linecap="round"/>
<path d="M16.5273 47.084L14.3105 46.0218" stroke="#3D67B1" stroke-width="2" stroke-linecap="round"/>
<path d="M16.5273 32.8062L14.2991 31.045" stroke="#3D67B1" stroke-width="2" stroke-linecap="round"/>
<path d="M16.5273 18.5281L14.3138 16.0295" stroke="#3D67B1" stroke-width="2" stroke-linecap="round"/>
<path d="M16.5273 4.25024L14.3076 1.04323" stroke="#3D67B1" stroke-width="2" stroke-linecap="round"/>
<path d="M3.87891 132.751L1.03295 135.963" stroke="#3D67B1" stroke-width="2" stroke-linecap="round"/>
<path d="M3.87891 118.472L1.03779 120.978" stroke="#3D67B1" stroke-width="2" stroke-linecap="round"/>
<path d="M3.87891 104.194L1.05942 106.032" stroke="#3D67B1" stroke-width="2" stroke-linecap="round"/>
<path d="M3.87891 89.9166L1.04244 91.019" stroke="#3D67B1" stroke-width="2" stroke-linecap="round"/>
<path d="M3.87891 75.6392L1.03678 76.0331" stroke="#3D67B1" stroke-width="2" stroke-linecap="round"/>
<path d="M3.87891 61.3613L1.03112 61.0234" stroke="#3D67B1" stroke-width="2" stroke-linecap="round"/>
<path d="M3.87891 47.084L1.02583 46.0376" stroke="#3D67B1" stroke-width="2" stroke-linecap="round"/>
<path d="M3.87891 32.8062L1.03144 31.0245" stroke="#3D67B1" stroke-width="2" stroke-linecap="round"/>
<path d="M3.87891 18.5281L0.99948 16.0788" stroke="#3D67B1" stroke-width="2" stroke-linecap="round"/>
<path d="M3.87891 4.25024L1.03295 1.03777" stroke="#3D67B1" stroke-width="2" stroke-linecap="round"/>
</g>
</svg>
