<svg width="149" height="157" viewBox="0 0 149 157" fill="none" xmlns="http://www.w3.org/2000/svg">
<g opacity="0.4">
<path d="M4.53329 152.269L1.04004 155.957" stroke="#3D67B1" stroke-width="2" stroke-linecap="round"/>
<path d="M20.0598 152.268L17.3965 156" stroke="#3D67B1" stroke-width="2" stroke-linecap="round"/>
<path d="M35.5858 152.268L33.6484 155.959" stroke="#3D67B1" stroke-width="2" stroke-linecap="round"/>
<path d="M51.1105 152.268L49.9727 155.966" stroke="#3D67B1" stroke-width="2" stroke-linecap="round"/>
<path d="M66.6363 152.268L66.2689 155.959" stroke="#3D67B1" stroke-width="2" stroke-linecap="round"/>
<path d="M82.1613 152.269L82.5896 155.952" stroke="#3D67B1" stroke-width="2" stroke-linecap="round"/>
<path d="M97.6875 152.269L98.8863 155.945" stroke="#3D67B1" stroke-width="2" stroke-linecap="round"/>
<path d="M113.213 152.269L115.211 155.923" stroke="#3D67B1" stroke-width="2" stroke-linecap="round"/>
<path d="M128.738 152.268L131.463 155.95" stroke="#3D67B1" stroke-width="2" stroke-linecap="round"/>
<path d="M144.265 152.268L147.758 155.957" stroke="#3D67B1" stroke-width="2" stroke-linecap="round"/>
<path d="M4.53321 135.875L1.0459 138.752" stroke="#3D67B1" stroke-width="2" stroke-linecap="round"/>
<path d="M20.0597 135.875L17.3428 138.744" stroke="#3D67B1" stroke-width="2" stroke-linecap="round"/>
<path d="M35.585 135.875L33.6699 138.763" stroke="#3D67B1" stroke-width="2" stroke-linecap="round"/>
<path d="M51.111 135.875L49.9561 138.748" stroke="#3D67B1" stroke-width="2" stroke-linecap="round"/>
<path d="M66.6367 135.875L66.2548 138.745" stroke="#3D67B1" stroke-width="2" stroke-linecap="round"/>
<path d="M82.1617 135.875L82.5911 138.738" stroke="#3D67B1" stroke-width="2" stroke-linecap="round"/>
<path d="M97.6875 135.875L98.8898 138.727" stroke="#3D67B1" stroke-width="2" stroke-linecap="round"/>
<path d="M113.213 135.875L115.175 138.727" stroke="#3D67B1" stroke-width="2" stroke-linecap="round"/>
<path d="M128.738 135.875L131.455 138.744" stroke="#3D67B1" stroke-width="2" stroke-linecap="round"/>
<path d="M144.265 135.875L147.799 138.687" stroke="#3D67B1" stroke-width="2" stroke-linecap="round"/>
<path d="M4.534 119.482L1.07324 121.592" stroke="#3D67B1" stroke-width="2" stroke-linecap="round"/>
<path d="M20.0596 119.482L17.3584 121.554" stroke="#3D67B1" stroke-width="2" stroke-linecap="round"/>
<path d="M35.5852 119.482L33.6445 121.531" stroke="#3D67B1" stroke-width="2" stroke-linecap="round"/>
<path d="M51.1111 119.482L49.9795 121.552" stroke="#3D67B1" stroke-width="2" stroke-linecap="round"/>
<path d="M66.6365 119.482L66.2589 121.534" stroke="#3D67B1" stroke-width="2" stroke-linecap="round"/>
<path d="M82.1619 119.483L82.5734 121.527" stroke="#3D67B1" stroke-width="2" stroke-linecap="round"/>
<path d="M97.6875 119.482L98.8531 121.531" stroke="#3D67B1" stroke-width="2" stroke-linecap="round"/>
<path d="M113.213 119.482L115.154 121.531" stroke="#3D67B1" stroke-width="2" stroke-linecap="round"/>
<path d="M128.738 119.482L131.473 121.504" stroke="#3D67B1" stroke-width="2" stroke-linecap="round"/>
<path d="M144.265 119.482L147.76 121.528" stroke="#3D67B1" stroke-width="2" stroke-linecap="round"/>
<path d="M4.53433 103.089L1.05273 104.355" stroke="#3D67B1" stroke-width="2" stroke-linecap="round"/>
<path d="M20.0598 103.089L17.3594 104.359" stroke="#3D67B1" stroke-width="2" stroke-linecap="round"/>
<path d="M35.5855 103.089L33.6455 104.32" stroke="#3D67B1" stroke-width="2" stroke-linecap="round"/>
<path d="M51.1107 103.09L49.9463 104.319" stroke="#3D67B1" stroke-width="2" stroke-linecap="round"/>
<path d="M66.6364 103.089L66.2571 104.322" stroke="#3D67B1" stroke-width="2" stroke-linecap="round"/>
<path d="M82.162 103.089L82.5616 104.315" stroke="#3D67B1" stroke-width="2" stroke-linecap="round"/>
<path d="M97.6875 103.09L98.8519 104.319" stroke="#3D67B1" stroke-width="2" stroke-linecap="round"/>
<path d="M113.213 103.089L115.173 104.284" stroke="#3D67B1" stroke-width="2" stroke-linecap="round"/>
<path d="M128.738 103.09L131.459 104.309" stroke="#3D67B1" stroke-width="2" stroke-linecap="round"/>
<path d="M144.265 103.089L147.767 104.291" stroke="#3D67B1" stroke-width="2" stroke-linecap="round"/>
<path d="M4.53347 86.6966L1.04492 87.1488" stroke="#3D67B1" stroke-width="2" stroke-linecap="round"/>
<path d="M20.0604 86.6965L17.3496 87.1498" stroke="#3D67B1" stroke-width="2" stroke-linecap="round"/>
<path d="M35.5853 86.6964L33.6494 87.1309" stroke="#3D67B1" stroke-width="2" stroke-linecap="round"/>
<path d="M51.1107 86.6964L49.9502 87.1183" stroke="#3D67B1" stroke-width="2" stroke-linecap="round"/>
<path d="M66.6359 86.6965L66.2478 87.1064" stroke="#3D67B1" stroke-width="2" stroke-linecap="round"/>
<path d="M82.1618 86.6965L82.55 87.1064" stroke="#3D67B1" stroke-width="2" stroke-linecap="round"/>
<path d="M97.6875 86.6966L98.8548 87.0971" stroke="#3D67B1" stroke-width="2" stroke-linecap="round"/>
<path d="M113.213 86.6965L115.156 87.0952" stroke="#3D67B1" stroke-width="2" stroke-linecap="round"/>
<path d="M128.738 86.6964L131.456 87.0997" stroke="#3D67B1" stroke-width="2" stroke-linecap="round"/>
<path d="M144.265 86.6965L147.76 87.0844" stroke="#3D67B1" stroke-width="2" stroke-linecap="round"/>
<path d="M4.53358 70.3034L1.03809 69.9155" stroke="#3D67B1" stroke-width="2" stroke-linecap="round"/>
<path d="M20.0596 70.3035L17.3418 69.9002" stroke="#3D67B1" stroke-width="2" stroke-linecap="round"/>
<path d="M35.5853 70.3035L33.6426 69.9047" stroke="#3D67B1" stroke-width="2" stroke-linecap="round"/>
<path d="M51.1107 70.3034L49.9434 69.9029" stroke="#3D67B1" stroke-width="2" stroke-linecap="round"/>
<path d="M66.6359 70.3034L66.2478 69.8936" stroke="#3D67B1" stroke-width="2" stroke-linecap="round"/>
<path d="M82.1618 70.3034L82.55 69.8936" stroke="#3D67B1" stroke-width="2" stroke-linecap="round"/>
<path d="M97.6875 70.3036L98.848 69.8817" stroke="#3D67B1" stroke-width="2" stroke-linecap="round"/>
<path d="M113.213 70.3035L115.149 69.869" stroke="#3D67B1" stroke-width="2" stroke-linecap="round"/>
<path d="M128.738 70.3034L131.449 69.8501" stroke="#3D67B1" stroke-width="2" stroke-linecap="round"/>
<path d="M144.265 70.3034L147.753 69.8511" stroke="#3D67B1" stroke-width="2" stroke-linecap="round"/>
<path d="M4.53422 53.9106L1.03223 52.7092" stroke="#3D67B1" stroke-width="2" stroke-linecap="round"/>
<path d="M20.0599 53.9106L17.3389 52.6911" stroke="#3D67B1" stroke-width="2" stroke-linecap="round"/>
<path d="M35.585 53.9106L33.625 52.7158" stroke="#3D67B1" stroke-width="2" stroke-linecap="round"/>
<path d="M51.1107 53.9106L49.9463 52.6812" stroke="#3D67B1" stroke-width="2" stroke-linecap="round"/>
<path d="M66.6368 53.9106L66.2372 52.6853" stroke="#3D67B1" stroke-width="2" stroke-linecap="round"/>
<path d="M82.1624 53.9106L82.5417 52.6781" stroke="#3D67B1" stroke-width="2" stroke-linecap="round"/>
<path d="M97.6875 53.9106L98.8519 52.6812" stroke="#3D67B1" stroke-width="2" stroke-linecap="round"/>
<path d="M113.213 53.9106L115.153 52.6799" stroke="#3D67B1" stroke-width="2" stroke-linecap="round"/>
<path d="M128.738 53.9106L131.439 52.6412" stroke="#3D67B1" stroke-width="2" stroke-linecap="round"/>
<path d="M144.265 53.9106L147.746 52.6449" stroke="#3D67B1" stroke-width="2" stroke-linecap="round"/>
<path d="M4.53318 37.5178L1.03809 35.4722" stroke="#3D67B1" stroke-width="2" stroke-linecap="round"/>
<path d="M20.0593 37.5178L17.3242 35.4957" stroke="#3D67B1" stroke-width="2" stroke-linecap="round"/>
<path d="M35.5852 37.5178L33.6445 35.4687" stroke="#3D67B1" stroke-width="2" stroke-linecap="round"/>
<path d="M51.111 37.5178L49.9453 35.4695" stroke="#3D67B1" stroke-width="2" stroke-linecap="round"/>
<path d="M66.6368 37.5178L66.2254 35.4738" stroke="#3D67B1" stroke-width="2" stroke-linecap="round"/>
<path d="M82.1622 37.5178L82.5398 35.4665" stroke="#3D67B1" stroke-width="2" stroke-linecap="round"/>
<path d="M97.6875 37.5178L98.8191 35.4483" stroke="#3D67B1" stroke-width="2" stroke-linecap="round"/>
<path d="M113.214 37.5178L115.155 35.4687" stroke="#3D67B1" stroke-width="2" stroke-linecap="round"/>
<path d="M128.739 37.5178L131.44 35.4456" stroke="#3D67B1" stroke-width="2" stroke-linecap="round"/>
<path d="M144.265 37.5178L147.725 35.4081" stroke="#3D67B1" stroke-width="2" stroke-linecap="round"/>
<path d="M4.53433 21.1248L1 18.3127" stroke="#3D67B1" stroke-width="2" stroke-linecap="round"/>
<path d="M20.0597 21.1248L17.3428 18.256" stroke="#3D67B1" stroke-width="2" stroke-linecap="round"/>
<path d="M35.5846 21.1248L33.6221 18.2726" stroke="#3D67B1" stroke-width="2" stroke-linecap="round"/>
<path d="M51.1105 21.1248L49.9082 18.2735" stroke="#3D67B1" stroke-width="2" stroke-linecap="round"/>
<path d="M66.637 21.1248L66.2076 18.2625" stroke="#3D67B1" stroke-width="2" stroke-linecap="round"/>
<path d="M82.162 21.1248L82.544 18.2551" stroke="#3D67B1" stroke-width="2" stroke-linecap="round"/>
<path d="M97.6875 21.1248L98.8425 18.2517" stroke="#3D67B1" stroke-width="2" stroke-linecap="round"/>
<path d="M113.214 21.1248L115.129 18.2369" stroke="#3D67B1" stroke-width="2" stroke-linecap="round"/>
<path d="M128.739 21.1248L131.456 18.256" stroke="#3D67B1" stroke-width="2" stroke-linecap="round"/>
<path d="M144.265 21.1248L147.752 18.248" stroke="#3D67B1" stroke-width="2" stroke-linecap="round"/>
<path d="M4.53329 4.73169L1.04004 1.04328" stroke="#3D67B1" stroke-width="2" stroke-linecap="round"/>
<path d="M20.0595 4.73169L17.335 1.04955" stroke="#3D67B1" stroke-width="2" stroke-linecap="round"/>
<path d="M35.586 4.73169L33.5879 1.07759" stroke="#3D67B1" stroke-width="2" stroke-linecap="round"/>
<path d="M51.1109 4.73169L49.9121 1.05558" stroke="#3D67B1" stroke-width="2" stroke-linecap="round"/>
<path d="M66.6365 4.73169L66.2081 1.04825" stroke="#3D67B1" stroke-width="2" stroke-linecap="round"/>
<path d="M82.1625 4.73169L82.5298 1.04091" stroke="#3D67B1" stroke-width="2" stroke-linecap="round"/>
<path d="M97.6875 4.73169L98.8254 1.03405" stroke="#3D67B1" stroke-width="2" stroke-linecap="round"/>
<path d="M113.214 4.73169L115.151 1.04133" stroke="#3D67B1" stroke-width="2" stroke-linecap="round"/>
<path d="M128.739 4.73169L131.403 0.999905" stroke="#3D67B1" stroke-width="2" stroke-linecap="round"/>
<path d="M144.265 4.73169L147.758 1.04328" stroke="#3D67B1" stroke-width="2" stroke-linecap="round"/>
</g>
</svg>
